<svg width="16" height="16" viewBox="0 0 16 16" fill="none" xmlns="http://www.w3.org/2000/svg">
<g clip-path="url(#clip0_1507_73)">
<path d="M6.66634 14.6693V10.0026H5.33301V6.00261C5.33301 5.63594 5.46367 5.32194 5.72501 5.06061C5.98634 4.79927 6.30012 4.66883 6.66634 4.66927H9.33301C9.69967 4.66927 10.0137 4.79994 10.275 5.06127C10.5363 5.32261 10.6668 5.63638 10.6663 6.00261V10.0026H9.33301V14.6693H6.66634ZM7.99967 4.00261C7.63301 4.00261 7.31901 3.87194 7.05767 3.61061C6.79634 3.34927 6.6659 3.03549 6.66634 2.66927C6.66634 2.30261 6.79701 1.98861 7.05834 1.72727C7.31967 1.46594 7.63345 1.33549 7.99967 1.33594C8.36634 1.33594 8.68034 1.46661 8.94167 1.72794C9.20301 1.98927 9.33345 2.30305 9.33301 2.66927C9.33301 3.03594 9.20234 3.34994 8.94101 3.61127C8.67967 3.87261 8.3659 4.00305 7.99967 4.00261Z" fill="#0C62C7"/>
</g>
<defs>
<clipPath id="clip0_1507_73">
<rect width="16" height="16" fill="white"/>
</clipPath>
</defs>
</svg>
